<svg xmlns="http://www.w3.org/2000/svg" viewBox="0 0 48 48" id="graduation"><path fill="#374f68" d="M46,11,24,21,2,11,24,1Z"></path><path fill="#425b72" d="M24,13H35c-7.54,3.42-14.4,3.46-20.92.49L5.3,9.5,24,1,42.7,9.5,39.4,11H24A1,1,0,0,0,24,13Z"></path><path fill="#2c435e" d="M36,15.55c0,9.14.08,8.67-.2,9.17C33.2,29.49,12,28.84,12,24V15.55L24,21Z"></path><path fill="#2c435e" d="M36,17.55c0,6.93.08,6.68-.2,7.17C28.59,27.31,15,25.72,15,22V18.91L24,23Z"></path><path fill="#374f68" d="M36,17.55c0,6.93.08,6.68-.2,7.17C28.59,27.31,15,25.72,15,22V18.91L24,23Z"></path><path fill="#ffba55" d="M13,39H9v8c-2.21,0-4-3.13-4-7s1.79-7,4-7l.53.07C11.3,33.47,12.71,35.91,13,39Z"></path><path fill="#fc6" d="M43,40c0,2.78-1.25,7-4,7-12.76-1.7-12.71-1.71-13.36-1.75a10.8,10.8,0,0,0,0-10.5c.66,0,.39,0,13.36-1.75C41.21,33,43,36.13,43,40Z"></path><path fill="#db5669" d="M25.64,45.25c-5.26-.47-4.2,1.27-3.22-1.64a10.93,10.93,0,0,0-.83-8.94,18.91,18.91,0,0,0,4.05.08A10.8,10.8,0,0,1,25.64,45.25Z"></path><path fill="#fc6" d="M21.59,45.33c-.13,0,.29,0-12.06,1.6,4.56-1,4.61-12.82,0-13.86,12.92,1.73,11.93,1.6,12.06,1.6A10.78,10.78,0,0,1,21.59,45.33Z"></path><path fill="#ffde76" d="M22.42,43.61l-4.85.65a2,2,0,0,1-2.13-2.67,11.55,11.55,0,0,0-.23-7.76c6.93.92,6.24.84,6.38.84A10.91,10.91,0,0,1,22.42,43.61Z"></path><path fill="#f26674" d="M26.56,43.19a34.79,34.79,0,0,0-4.14.42,10.93,10.93,0,0,0-.83-8.94,18.91,18.91,0,0,0,4.05.08A11,11,0,0,1,26.56,43.19Z"></path><path fill="#ffde76" d="M41.81,45c-13.14-1.76-13.21-1.85-15.25-1.79a10.94,10.94,0,0,0-.92-8.44c.66,0,.39,0,13.36-1.75C42.6,33,44.33,40.66,41.81,45Z"></path><path fill="#ffba55" d="M9,47V39h4C13.25,42.14,12.19,46.57,9,47Z"></path><path fill="#fc6" d="M9 46.77V39h3C12.21 41.67 11.38 45.7 9 46.77zM47 23v4H43V23a2 2 0 0 1 4 0z"></path><path fill="#ffde76" d="M47,23v3a3,3,0,0,1-3-3,4.1,4.1,0,0,1,.18-1.82A2,2,0,0,1,47,23Z"></path><path d="M39 32c-2.73 0-12.38 2.34-17.51 1.66C5.29 31.5 10 32.05 9.16 32 6 31.58 4 36.27 4 40s1.94 8.42 5.16 8l12.33-1.65c3.34-.44 4.3-.09 17.38 1.65 3.23.42 5.13-4.33 5.13-8C44 35.51 41.8 32 39 32zM21 44.4l-8.31 1.1a11.88 11.88 0 0 0 0-11L21 35.6A9.81 9.81 0 0 1 21 44.4zM10 45.61V40h2C12 42.71 11.07 44.78 10 45.61zM9.36 34.06c1 .28 2.05 1.76 2.46 3.94H9a1 1 0 0 0-1 1v6.61C4.68 43.05 5.79 33.58 9.36 34.06zM23.27 44.2a12.49 12.49 0 0 0 0-8.4 13.2 13.2 0 0 0 1.79 0 9.92 9.92 0 0 1 0 8.42C24.46 44.18 23.86 44.18 23.27 44.2zM39 46L27.19 44.42a12.46 12.46 0 0 0 0-8.84L39 34c1.41 0 3 2.49 3 6S40.45 46 39 46zM46 20.18V12.1l.41-.19a1 1 0 0 0 0-1.82C22.53-.77 24.18-.18 23.59.09-.25 10.92 1 10.08 1 11s-.05.62 10 5.19V24c0 6.64 26 6.66 26 0V16.19L44 13v7.17A3 3 0 0 0 42 23v4a1 1 0 0 0 1 1h4a1 1 0 0 0 1-1V23A3 3 0 0 0 46 20.18zM24 2.1L41.38 10H24a1 1 0 0 0 0 2H41.38L24 19.9 4.42 11zM35 24c0 1-3.88 3-11 3s-11-2-11-3V17.1c11.38 5.17 10.82 5.08 11.41 4.81L35 17.1zm11 2H44V23a1 1 0 0 1 2 0z"></path></svg>