<svg xmlns="http://www.w3.org/2000/svg" viewBox="0 0 500 500"><g id="freepik--background-complete--inject-40"><rect x="62.77" y="59.04" width="35.16" height="11.19" style="fill:#ebebeb"></rect><path d="M437.73,159.25H401.57V147.06h36.16Zm-35.16-1h34.16V148.06H402.57Z" style="fill:#ebebeb"></path><path d="M78.32,44.93c-5.84.1-20.81.35-26.45.42l-8.71,0,.46-.46,0,11.19-.5-.5c5.84,0,20.73.08,26.37.16l8.79.11-.24.23.24-11.19Zm0,0,.23,11.19v.24h-.24c-4.39.06-13.2.16-17.58.19l-17.58.07h-.5v-.5l0-11.19v-.45h.45l8.87,0c5.6.06,20.5.31,26.29.41Z" style="fill:#ebebeb"></path><path d="M137.08,311.75c-5.84.1-20.82.35-26.45.42l-8.71,0,.45-.46,0,11.19-.5-.5c5.84,0,20.73.08,26.37.16l8.79.11-.24.23.24-11.19Zm0,0,.23,11.19v.24h-.24c-4.39.06-13.2.16-17.58.2l-17.58.06h-.5v-.51l0-11.19v-.45h.46l8.87,0c5.6.06,20.5.32,26.29.41Z" style="fill:#ebebeb"></path><path d="M117.46,297.64c-5.84.1-20.81.35-26.44.42l-8.71,0,.45-.46,0,11.19-.5-.5c5.83,0,20.72.08,26.36.16l8.79.11-.23.23.23-11.19Zm0,0,.24,11.19v.24h-.25c-4.38.06-13.19.16-17.58.2l-17.57.06H81.8v-.51l0-11.19v-.45h.46l8.86,0c5.61.06,20.51.32,26.29.41Z" style="fill:#ebebeb"></path><rect x="62.77" y="311.75" width="35.16" height="11.19" style="fill:#ebebeb"></rect><rect x="421.68" y="44.93" width="35.16" height="11.19" style="fill:#ebebeb"></rect><rect x="402.07" y="436.89" width="35.16" height="11.19" style="fill:#ebebeb"></rect><path d="M456.84,422.78c-5.84.1-20.81.35-26.45.42l-8.71,0,.46-.46,0,11.19-.5-.5c5.84,0,20.73.07,26.37.16l8.79.1-.24.24.24-11.19Zm0,0,.24,11.19v.24h-.24c-4.39.06-13.19.16-17.58.19l-17.58.07h-.5V434l.05-11.19v-.46h.45l8.87,0c5.6.06,20.51.31,26.29.41Z" style="fill:#ebebeb"></path><path d="M78.32,436.89c-5.84.1-20.81.35-26.45.41l-8.71.05.46-.46,0,11.19-.5-.5c5.84,0,20.73.07,26.37.15l8.79.11-.24.24.24-11.19Zm0,0,.23,11.19v.24h-.24c-4.39.06-13.2.16-17.58.19l-17.58.07h-.5v-.5l0-11.19v-.46h.45l8.87,0c5.6.06,20.5.31,26.29.41Z" style="fill:#ebebeb"></path></g><g id="freepik--Floor--inject-40"><path d="M44.54,460.05c131.63-.61,279.29-.62,410.92,0-131.63.62-279.29.61-410.92,0Z" style="fill:#263238"></path></g><g id="freepik--Device--inject-40"><rect x="52.07" y="113.05" width="395.86" height="264.85" rx="12.89" transform="translate(495.47 -4.53) rotate(90)" style="fill:#37474f"></rect><rect x="129.06" y="75.25" width="242.19" height="340.69" style="fill:#fff"></rect><rect x="247.94" y="34.8" width="4.12" height="57.64" rx="1.25" transform="translate(313.62 -186.38) rotate(90)" style="fill:#263238"></rect><circle cx="250" cy="429.32" r="7.45" transform="translate(-230.35 302.52) rotate(-45)" style="fill:#263238"></circle><rect x="129.06" y="75.25" width="242.19" height="340.69" style="fill:#fff"></rect><rect x="129.06" y="75.25" width="242.19" height="8.32" style="fill:#263238"></rect><path d="M136.5,79.41a1.75,1.75,0,1,1-1.74-1.75A1.74,1.74,0,0,1,136.5,79.41Z" style="fill:#c7c7c7"></path><path d="M143.63,79.41a1.75,1.75,0,1,1-1.75-1.75A1.75,1.75,0,0,1,143.63,79.41Z" style="fill:#fff"></path><path d="M150.75,79.41A1.75,1.75,0,1,1,149,77.66,1.74,1.74,0,0,1,150.75,79.41Z" style="fill:#D71D42"></path><path d="M283.85,151.58a18,18,0,1,1-8.66-33.75v18Z" style="fill:#263238"></path><path d="M285.85,121.34l-10.66,14.47v-18A17.85,17.85,0,0,1,285.85,121.34Z" style="fill:#D71D42"></path><path d="M293.16,135.81A17.88,17.88,0,0,1,288.4,148l-13.21-12.19,10.66-14.47A17.93,17.93,0,0,1,293.16,135.81Z" style="fill:#dbdbdb"></path><path d="M294.86,156.34a17.62,17.62,0,0,1-4.55,3.58l-8.65-15.76Z" style="fill:#455a64"></path><path d="M226.65,118.52l-4.94,17.29v18a18,18,0,0,1,0-36A18.19,18.19,0,0,1,226.65,118.52Z" style="fill:#dbdbdb"></path><path d="M232.36,150.3a17.86,17.86,0,0,1-10.65,3.5v-18Z" style="fill:#263238"></path><path d="M239.69,135.81a17.93,17.93,0,0,1-7.33,14.49l-10.65-14.49,14-11.3A17.85,17.85,0,0,1,239.69,135.81Z" style="fill:#455a64"></path><path d="M239.69,118.68l-14,11.31,4.94-17.3A18,18,0,0,1,239.69,118.68Z" style="fill:#D71D42"></path><path d="M168.24,117.83v18L156.13,149.1a18,18,0,0,1,12.11-31.27Z" style="fill:#455a64"></path><path d="M181.11,123.26l-12.87,12.55v-18A17.92,17.92,0,0,1,181.11,123.26Z" style="fill:#D71D42"></path><path d="M186.22,135.81a18,18,0,0,1-6.62,13.94l-11.36-13.94,12.87-12.55A17.92,17.92,0,0,1,186.22,135.81Z" style="fill:#dbdbdb"></path><path d="M179.6,154.47a18,18,0,0,1-23.47-.65l12.11-13.29Z" style="fill:#263238"></path><path d="M328.66,117.83v36a18,18,0,0,1,0-36Z" style="fill:#D71D42"></path><path d="M333.2,118.41l-4.54,17.4v-18A18.34,18.34,0,0,1,333.2,118.41Z" style="fill:#263238"></path><path d="M349.74,134.78a18,18,0,0,1-1.24,6.59l-16.74-6.59,4.54-17.4A18,18,0,0,1,349.74,134.78Z" style="fill:#455a64"></path><path d="M345.39,142.41a18,18,0,0,1-16.73,11.39v-18Z" style="fill:#dbdbdb"></path><rect x="162.59" y="166.49" width="20.99" height="2.02" style="fill:#ebebeb"></rect><rect x="162.59" y="170.7" width="13.93" height="2.02" style="fill:#ebebeb"></rect><rect x="152.9" y="166.46" width="6.28" height="6.28" style="fill:#455a64"></rect><rect x="216.06" y="166.49" width="20.99" height="2.02" style="fill:#ebebeb"></rect><rect x="216.06" y="170.7" width="13.93" height="2.02" style="fill:#ebebeb"></rect><rect x="206.37" y="166.46" width="6.28" height="6.28" style="fill:#dbdbdb"></rect><rect x="270.38" y="166.49" width="20.99" height="2.02" style="fill:#ebebeb"></rect><rect x="270.38" y="170.7" width="13.93" height="2.02" style="fill:#ebebeb"></rect><rect x="260.7" y="166.46" width="6.28" height="6.28" style="fill:#263238"></rect><rect x="324.56" y="166.49" width="20.99" height="2.02" style="fill:#ebebeb"></rect><rect x="324.56" y="170.7" width="13.93" height="2.02" style="fill:#ebebeb"></rect><rect x="314.87" y="166.46" width="6.28" height="6.28" style="fill:#D71D42"></rect><path d="M206.91,336.06a26.64,26.64,0,0,1-16.22,24.52l-10.41-24.52Z" style="fill:#D71D42"></path><path d="M176.87,334.24l10.41,24.51s0,0-.05,0c-.82.33-1.63.64-2.45.89a26.67,26.67,0,0,1-15.82,0,26.63,26.63,0,0,1,0-50.85,26.67,26.67,0,0,1,15.82,0,26.63,26.63,0,0,1,17.53,17.51,27.14,27.14,0,0,1,1.2,7.91Z" style="fill:#D71D42"></path><path d="M176.87,334.24l10.41,24.51s0,0-.05,0c-.82.33-1.63.64-2.45.89a26.64,26.64,0,1,1,18.73-25.43Z" style="fill:#dbdbdb"></path><path d="M176.88,334.24l-17.35,20.19a26.62,26.62,0,1,1,44-20.19Z" style="fill:#455a64"></path><polygon points="220.69 369.52 200.57 369.52 175.66 344.61 176.03 344.25 200.78 369.01 220.69 369.01 220.69 369.52" style="fill:#263238"></polygon><rect x="174.44" y="343.03" width="2.8" height="2.8" style="fill:#263238"></rect><polygon points="220.69 350.25 198.02 350.25 187.26 339.49 187.62 339.13 198.23 349.74 220.69 349.74 220.69 350.25" style="fill:#263238"></polygon><rect x="186.04" y="337.91" width="2.8" height="2.8" style="fill:#263238"></rect><rect x="186.41" y="331.18" width="34.27" height="0.51" style="fill:#263238"></rect><rect x="184.64" y="330.04" width="2.8" height="2.8" style="fill:#263238"></rect><rect x="228.48" y="328.63" width="24.9" height="2.32" style="fill:#ebebeb"></rect><rect x="228.48" y="333.46" width="32.31" height="2.32" style="fill:#ebebeb"></rect><rect x="228.48" y="338.3" width="17.27" height="2.32" style="fill:#ebebeb"></rect><rect x="217.87" y="328.63" width="5.62" height="5.62" style="fill:#455a64"></rect><rect x="228.48" y="347.34" width="27.93" height="2.32" style="fill:#ebebeb"></rect><rect x="228.48" y="352.18" width="23.29" height="2.32" style="fill:#ebebeb"></rect><rect x="228.48" y="357.01" width="32.31" height="2.32" style="fill:#ebebeb"></rect><rect x="217.87" y="347.34" width="5.62" height="5.62" style="fill:#D71D42"></rect><rect x="228.48" y="366.05" width="27.93" height="2.32" style="fill:#ebebeb"></rect><rect x="228.48" y="370.89" width="23.29" height="2.32" style="fill:#ebebeb"></rect><rect x="228.48" y="375.73" width="32.31" height="2.32" style="fill:#ebebeb"></rect><rect x="217.87" y="366.05" width="5.62" height="5.62" style="fill:#dbdbdb"></rect><path d="M150.26,193.84l67.79-.16c22.6.06,45.2,0,67.8.16-22.6.15-45.2.11-67.8.17Z" style="fill:#dbdbdb"></path><path d="M150.26,198.91l67.79-.17c22.6.06,45.2,0,67.8.17-22.6.14-45.2.11-67.8.16Z" style="fill:#dbdbdb"></path><path d="M150.26,204l67.79-.16c22.6.06,45.2,0,67.8.16-22.6.14-45.2.11-67.8.17Z" style="fill:#dbdbdb"></path><path d="M150.26,209l67.79-.17c22.6.06,45.2,0,67.8.17-22.6.14-45.2.1-67.8.16Z" style="fill:#dbdbdb"></path><path d="M150.26,214.1l67.79-.16c22.6.05,45.2,0,67.8.16-22.6.14-45.2.11-67.8.17Z" style="fill:#dbdbdb"></path><path d="M150.26,219.16l67.79-.16c22.6.06,45.2,0,67.8.16-22.6.15-45.2.11-67.8.17Z" style="fill:#dbdbdb"></path><path d="M150.26,224.23l67.79-.17c22.6.06,45.2,0,67.8.17-22.6.14-45.2.11-67.8.16Z" style="fill:#dbdbdb"></path><path d="M150.26,229.29l67.79-.16c22.6.06,45.2,0,67.8.16-22.6.15-45.2.11-67.8.17Z" style="fill:#dbdbdb"></path><path d="M150.26,234.36l67.79-.17c22.6.06,45.2,0,67.8.17-22.6.14-45.2.1-67.8.16Z" style="fill:#dbdbdb"></path><path d="M150.26,239.42l67.79-.16c22.6.05,45.2,0,67.8.16-22.6.14-45.2.11-67.8.17Z" style="fill:#dbdbdb"></path><path d="M150.26,244.49l67.79-.17c22.6.06,45.2,0,67.8.17-22.6.14-45.2.1-67.8.16Z" style="fill:#dbdbdb"></path><path d="M150.26,249.55l67.79-.17c22.6.06,45.2,0,67.8.17-22.6.14-45.2.11-67.8.16Z" style="fill:#dbdbdb"></path><path d="M150.26,254.61l67.79-.16c22.6.06,45.2,0,67.8.16-22.6.15-45.2.11-67.8.17Z" style="fill:#dbdbdb"></path><path d="M150.26,259.68l67.79-.17c22.6.06,45.2,0,67.8.17-22.6.14-45.2.1-67.8.16Z" style="fill:#dbdbdb"></path><path d="M150.26,264.74l67.79-.16c22.6.06,45.2,0,67.8.16-22.6.14-45.2.11-67.8.17Z" style="fill:#dbdbdb"></path><rect x="164.6" y="229.29" width="10.28" height="41.35" style="fill:#D71D42"></rect><rect x="183.67" y="211.8" width="10.28" height="58.84" style="fill:#263238"></rect><rect x="202.74" y="224.4" width="10.28" height="46.24" style="fill:#dbdbdb"></rect><rect x="221.82" y="209.04" width="10.28" height="61.61" style="fill:#D71D42"></rect><rect x="240.89" y="217.3" width="10.28" height="53.35" style="fill:#263238"></rect><rect x="259.97" y="247.52" width="10.28" height="23.12" style="fill:#dbdbdb"></rect><path d="M153.94,190.29l.28,20.09.19,20.09c.13,13.39.17,26.78.2,40.18l-.67-.62,33,0,33,.07,33,.2,33,.37-33,.36-33,.2-33,.07-33,0h-.67v-.61c0-13.4.06-26.79.2-40.18l.19-20.09Z" style="fill:#dbdbdb"></path><rect x="164.6" y="274.89" width="10.28" height="0.85" style="fill:#dbdbdb"></rect><rect x="183.67" y="274.89" width="10.28" height="0.85" style="fill:#dbdbdb"></rect><rect x="202.74" y="274.89" width="10.28" height="0.85" style="fill:#dbdbdb"></rect><rect x="221.82" y="274.89" width="10.28" height="0.85" style="fill:#dbdbdb"></rect><rect x="240.89" y="274.89" width="10.28" height="0.85" style="fill:#dbdbdb"></rect><rect x="259.97" y="274.89" width="10.28" height="0.85" style="fill:#dbdbdb"></rect><rect x="311.32" y="196.98" width="37.11" height="2.02" style="fill:#ebebeb"></rect><rect x="311.32" y="201.19" width="30.05" height="2.02" style="fill:#ebebeb"></rect><rect x="300.57" y="196.95" width="6.28" height="6.28" style="fill:#D71D42"></rect><rect x="311.32" y="217.65" width="37.11" height="2.02" style="fill:#ebebeb"></rect><rect x="311.32" y="221.86" width="30.05" height="2.02" style="fill:#ebebeb"></rect><rect x="300.57" y="217.62" width="6.28" height="6.28" style="fill:#263238"></rect><rect x="311.32" y="238.32" width="37.11" height="2.02" style="fill:#ebebeb"></rect><rect x="311.32" y="242.53" width="30.05" height="2.02" style="fill:#ebebeb"></rect><rect x="300.57" y="238.29" width="6.28" height="6.28" style="fill:#dbdbdb"></rect><path d="M310.27,311.29a10.58,10.58,0,0,1-.13,1.71,11.61,11.61,0,1,1,.13-1.71Z" style="fill:#455a64"></path><path d="M310.27,311.29a10.58,10.58,0,0,1-.13,1.71l-11.54-1.71V299.62a11.66,11.66,0,0,1,11.67,11.67Z" style="fill:#D71D42"></path><circle cx="298.6" cy="311.29" r="8.07" style="fill:#fff"></circle><rect x="295.24" y="309.5" width="6.72" height="0.95" style="fill:#263238"></rect><rect x="293.57" y="312.14" width="10.05" height="0.95" style="fill:#a6a6a6"></rect><path d="M310.27,341.43a11.66,11.66,0,1,1-1.54-5.8A11.68,11.68,0,0,1,310.27,341.43Z" style="fill:#455a64"></path><path d="M310.27,341.43a11.68,11.68,0,0,1-7.49,10.9l-4.18-10.9V329.76a11.66,11.66,0,0,1,11.67,11.67Z" style="fill:#D71D42"></path><circle cx="298.6" cy="341.43" r="8.07" style="fill:#fff"></circle><rect x="295.24" y="339.64" width="6.72" height="0.95" style="fill:#263238"></rect><rect x="293.57" y="342.28" width="10.05" height="0.95" style="fill:#a6a6a6"></rect><path d="M310.27,371.58a11.66,11.66,0,1,1-1.54-5.81A11.61,11.61,0,0,1,310.27,371.58Z" style="fill:#455a64"></path><path d="M310.27,371.58A11.67,11.67,0,0,1,291,380.45l7.58-8.87V359.9a11.66,11.66,0,0,1,11.67,11.68Z" style="fill:#D71D42"></path><circle cx="298.6" cy="371.58" r="8.07" transform="translate(-106.62 622.63) rotate(-83)" style="fill:#fff"></circle><rect x="295.24" y="369.78" width="6.72" height="0.95" style="fill:#263238"></rect><rect x="293.57" y="372.42" width="10.05" height="0.95" style="fill:#a6a6a6"></rect><rect x="317.38" y="307.7" width="32.36" height="0.9" style="fill:#ebebeb"></rect><rect x="317.38" y="310.85" width="32.36" height="0.9" style="fill:#ebebeb"></rect><rect x="317.38" y="313.99" width="32.36" height="0.9" style="fill:#ebebeb"></rect><rect x="317.38" y="337.84" width="32.36" height="0.9" style="fill:#ebebeb"></rect><rect x="317.38" y="340.99" width="32.36" height="0.9" style="fill:#ebebeb"></rect><rect x="317.38" y="344.13" width="32.36" height="0.9" style="fill:#ebebeb"></rect><rect x="317.38" y="367.98" width="32.36" height="0.9" style="fill:#ebebeb"></rect><rect x="317.38" y="371.13" width="32.36" height="0.9" style="fill:#ebebeb"></rect><rect x="317.38" y="374.27" width="32.36" height="0.9" style="fill:#ebebeb"></rect></g><g id="freepik--Plant--inject-40"><path d="M98.53,373.57a70.24,70.24,0,0,0-2.24,12.67c.12.21.1,1,0,.78,0,.69-1.08.57-1.09-.12,0-.45,0-.89,0-1.33-2.48-3.07-6.07-5-9-7.69a16.77,16.77,0,0,1-4.91-7.83c-2.41-8.3-.16-17.1-3-25.38-2.5-7.14-7-13.35-10.78-19.82-4-6.85-7-14-7.25-22.05-.23-6.14.5-14.32,5.17-18.91,5-4.88,11.1-1.23,14.9,3.12,11,12.63,16.08,28.58,18.14,44.89,1.14,9,2.31,18.11,2,27.23A72.52,72.52,0,0,1,98.53,373.57Z" style="fill:#D71D42"></path><path d="M96.34,389.55A154.81,154.81,0,0,0,96,364s0-.06,0-.1c.14-6.91.69-13.8.42-20.72a123.25,123.25,0,0,0-3-22.22.07.07,0,1,0-.13,0,145.51,145.51,0,0,1,2.41,21.73q.21,5.87-.1,11.72c-.06,1.27-.18,2.55-.27,3.83h0A136.8,136.8,0,0,0,74.79,303.8c-.14-.23-.54,0-.4.24A142.38,142.38,0,0,1,91.13,344.4c-5.29-9.8-13.28-17.86-19.2-27.27,0-.05-.12,0-.09.05,5.32,10.49,14.12,18.75,19.73,29.08,1,4.21,1.77,8.46,2.36,12.74a143.43,143.43,0,0,1,1.27,17.69c-3.22-6-6.56-11.79-9.2-18.16-.07-.17-.31,0-.25.12C88,365.27,91,372.39,95.22,378q0,6.29-.35,12.56c-.65,11.17-2.56,22.19-3.44,33.32a.26.26,0,0,0,.51,0A255.14,255.14,0,0,0,96.34,389.55Z" style="fill:#263238"></path><path d="M84.48,303.44c0-.08-.15,0-.12.06,2,5.64,3.19,11.35,4.67,17.13a.21.21,0,0,0,.42-.07C88.85,314.7,86.75,308.85,84.48,303.44Z" style="fill:#263238"></path><path d="M136.27,327.08a83.92,83.92,0,0,1-4.69,9.63c-3.67,6.67-7.5,12.78-8.19,20.55-.31,3.47-.42,6.95-1.48,10.29a30.8,30.8,0,0,1-4.1,8.06c-4,5.8-9,10.79-12.65,16.81a71.13,71.13,0,0,0-8.4,20.26c-.09.39-.7.28-.61-.11a.24.24,0,0,0,0-.09.15.15,0,0,1,0-.08C95.55,395.75,96.88,379,102,363A170.07,170.07,0,0,1,110,342.47c2.72-5.78,6.11-11.34,10.89-15.66,3.09-2.79,9.82-8.08,14.23-5.28C137.27,322.87,137.11,325,136.27,327.08Z" style="fill:#D71D42"></path><path d="M119.54,364.83a137.12,137.12,0,0,1-9.68,13.91c-1.61,2.1-3.24,4.19-4.85,6.29-.76,1-1.62,2-2.31,3.06.44-1.75.86-3.5,1.31-5.25,2.15-8.42,4.21-16.9,7.41-25A168.49,168.49,0,0,1,123,335.18c.11-.19-.2-.33-.32-.14-3.51,5.78-7.09,11.56-10,17.66a92.07,92.07,0,0,0-4.27,10.48A161,161,0,0,1,114,340.79c0-.07-.07-.11-.1-.05a76.44,76.44,0,0,0-5.89,23.3.08.08,0,0,0,0,0q-1.08,3.24-2,6.54c-2.62,9.32-4.92,18.73-7.06,28.18a101,101,0,0,1,1.61-18.52c0-.14-.19-.17-.22,0a58.63,58.63,0,0,0-1.61,19.52q-1.2,5.39-2.36,10.79c-1.63,7.67-3.64,15.49-4.6,23.28,0,.2.25.24.31.05,1.14-4.2,1.83-8.55,2.76-12.81s1.9-8.52,2.9-12.78c1.44-6.19,3-12.37,4.5-18.54,1-2.27,3-4.28,4.52-6.17,1.64-2.09,3.28-4.17,4.87-6.29a93.42,93.42,0,0,0,8-12.4C119.74,364.8,119.59,364.74,119.54,364.83Z" style="fill:#263238"></path><path d="M120.25,357.7a87.14,87.14,0,0,0-9.47,15.05c0,.07.07.14.11.07,3.19-5,6.33-10,9.51-15C120.45,357.71,120.31,357.63,120.25,357.7Z" style="fill:#263238"></path><path d="M49.37,342.86c2.15,3.72,4.62,8.18,3.69,12.65-.59,2.82-2.65,5.11-3,8-.83,6.36,5.51,10.56,10.09,13.56,11.44,7.51,27.12,14.19,29.2,29.51.08.55,1,.41.94-.12a.36.36,0,0,0,0-.1s.06-.05.06-.09a58.72,58.72,0,0,0-.22-23.4c-1.7-7.9-5.15-15-9.21-21.93C74,349.2,66.7,337.18,56.29,328.19c-2.88-2.49-8.78-7-11.07-1.35S46.72,338.33,49.37,342.86Z" style="fill:#D71D42"></path><path d="M59.83,367.75c7.58,8.21,19.63,12.81,26.16,22C82.12,375.66,75.72,363,65.89,352a.29.29,0,0,1,.41-.42,74.36,74.36,0,0,1,16.43,23.79,107.31,107.31,0,0,0-7.07-18.09c-.11-.22.21-.41.33-.19a68.91,68.91,0,0,1,7.63,20.33c8.6,20.82,9.39,45.23,7.59,67.17,0,.31-.5.32-.49,0,.49-17.29.21-34.88-3.93-51.77l-.27-1.05c-7.1-9.89-19.1-14.48-26.82-23.88C59.63,367.79,59.75,367.66,59.83,367.75Z" style="fill:#263238"></path><path d="M58.07,360.7c4,3.65,7.9,7.39,11.89,11,0,0,0,.1-.06.07a57.75,57.75,0,0,1-12.06-10.87A.17.17,0,0,1,58.07,360.7Z" style="fill:#263238"></path><path d="M57.45,344.89a124.75,124.75,0,0,0,11.9,16.37c.06.07,0,.17-.1.1a57.74,57.74,0,0,1-12-16.35A.13.13,0,0,1,57.45,344.89Z" style="fill:#263238"></path><polygon points="75.36 460.05 110.22 460.05 105.52 413.15 80.73 413.15 75.36 460.05" style="fill:#455a64"></polygon><polygon points="79.86 420.78 106.29 420.78 105.52 413.15 80.73 413.15 79.86 420.78" style="fill:#263238"></polygon><rect x="76.45" y="407.96" width="32.67" height="7.49" transform="translate(185.58 823.4) rotate(180)" style="fill:#455a64"></rect></g><g id="freepik--chart-2--inject-40"><rect x="326.18" y="253.73" width="93.47" height="90.52" style="fill:#fff"></rect><path d="M419.65,253.73c0,.25.24,90.54.24,90.77s-93.6,0-93.71.12h-.37v-.36c0-.26.11-90.54.12-90.77s93.55.38,93.72.24Zm0,0-93.47.25c.62-1.56.19,90.62.36,90.27l-.36-.36,93.47.12c-.59,1.52.15-90.6,0-90.28Z" style="fill:#263238"></path><rect x="326.18" y="253.73" width="93.47" height="5.74" style="fill:#263238"></rect><path d="M331.6,256.6a1.09,1.09,0,1,1-1.09-1.09A1.09,1.09,0,0,1,331.6,256.6Z" style="fill:#c7c7c7"></path><path d="M336.05,256.6a1.09,1.09,0,1,1-1.09-1.09A1.09,1.09,0,0,1,336.05,256.6Z" style="fill:#fff"></path><path d="M340.49,256.6a1.09,1.09,0,1,1-1.09-1.09A1.09,1.09,0,0,1,340.49,256.6Z" style="fill:#D71D42"></path><path d="M376.53,273.89l-6.15,21.52v22.37a22.38,22.38,0,0,1,0-44.75A22.61,22.61,0,0,1,376.53,273.89Z" style="fill:#D71D42"></path><path d="M383.64,313.43a22.22,22.22,0,0,1-13.26,4.35V295.41Z" style="fill:#c7c7c7"></path><path d="M392.76,295.41a22.34,22.34,0,0,1-9.12,18l-13.26-18,17.4-14.07A22.23,22.23,0,0,1,392.76,295.41Z" style="fill:#37474f"></path><path d="M392.76,274.1l-17.4,14.06,6.15-21.52A22.44,22.44,0,0,1,392.76,274.1Z" style="fill:#263238"></path><rect x="347.55" y="328.64" width="3.61" height="3.61" style="fill:#263238"></rect><rect x="353.67" y="328.64" width="39.56" height="1.07" style="fill:#455a64"></rect><rect x="353.67" y="331.18" width="25.56" height="1.07" style="fill:#455a64"></rect></g><g id="freepik--chart-1--inject-40"><rect x="44.54" y="143.26" width="116.45" height="90.52" style="fill:#fff"></rect><path d="M161,143.26c0,.25.25,90.54.25,90.77s-116.59,0-116.7.12h-.37v-.37c0-.26.11-90.53.12-90.77s116.54.37,116.7.25Zm0,0-116.45.25c.6-1.56.21,90.62.37,90.27l-.37-.36,116.45.12c-.56,1.52.14-90.6,0-90.28Z" style="fill:#263238"></path><rect x="79.93" y="218.11" width="3.61" height="3.61" style="fill:#D71D42"></rect><rect x="86.05" y="218.11" width="39.56" height="1.07" style="fill:#455a64"></rect><rect x="86.05" y="220.65" width="25.56" height="1.07" style="fill:#455a64"></rect><path d="M57.53,167.29c15.08-.09,30.16-.07,45.24-.11s30.16,0,45.24.11c-15.08.09-30.16.07-45.24.1S72.61,167.38,57.53,167.29Z" style="fill:#455a64"></path><path d="M57.53,176.06c15.08-.09,30.16-.07,45.24-.11s30.16,0,45.24.11c-15.08.09-30.16.07-45.24.11S72.61,176.15,57.53,176.06Z" style="fill:#455a64"></path><path d="M57.53,184.83c15.08-.09,30.16-.07,45.24-.1s30.16,0,45.24.1c-15.08.1-30.16.07-45.24.11S72.61,184.92,57.53,184.83Z" style="fill:#455a64"></path><path d="M57.53,193.61c15.08-.1,30.16-.07,45.24-.11s30.16,0,45.24.11c-15.08.09-30.16.06-45.24.1S72.61,193.7,57.53,193.61Z" style="fill:#455a64"></path><path d="M57.53,202.38c15.08-.09,30.16-.07,45.24-.11s30.16,0,45.24.11c-15.08.09-30.16.07-45.24.11S72.61,202.47,57.53,202.38Z" style="fill:#455a64"></path><path d="M75.74,161.58c.14,8.2.1,16.4.16,24.59s0,16.4-.16,24.6c-.13-8.2-.1-16.4-.15-24.6S75.61,169.78,75.74,161.58Z" style="fill:#455a64"></path><path d="M91.39,161.58c.13,8.2.1,16.4.16,24.59s0,16.4-.16,24.6c-.13-8.2-.1-16.4-.15-24.6S91.26,169.78,91.39,161.58Z" style="fill:#455a64"></path><path d="M107,161.58c.13,8.2.1,16.4.15,24.59s0,16.4-.15,24.6c-.14-8.2-.1-16.4-.16-24.6S106.9,169.78,107,161.58Z" style="fill:#455a64"></path><path d="M122.69,161.58c.13,8.2.09,16.4.15,24.59s0,16.4-.15,24.6c-.14-8.2-.1-16.4-.16-24.6S122.55,169.78,122.69,161.58Z" style="fill:#455a64"></path><path d="M138.33,161.58c.14,8.2.1,16.4.16,24.59s0,16.4-.16,24.6c-.13-8.2-.1-16.4-.15-24.6S138.2,169.78,138.33,161.58Z" style="fill:#455a64"></path><path d="M59.8,196c2.77,0,4.41-8.92,8.33-8.92s4.32,6.51,7.61,6.51,3.19-11.42,7.62-11.42,3.4,4.63,8,4.63,2.88-10.76,7.72-10.76S102,190.88,107,190.88c3.19,0,4.42-4.71,8.23-4.71,2.53,0,4,2.36,7.31,2.36s4-9.05,8.14-9.05,4.58,5.35,7.61,5.35,4.12-8.77,9.68-8.77v34.71H59.8Z" style="fill:#D71D42;opacity:0.5"></path><path d="M59.8,196.44v-.85c.84,0,2-2.09,2.83-3.61,1.45-2.61,2.94-5.3,5.5-5.3s3.66,2,4.73,3.72c.85,1.36,1.72,2.78,2.88,2.78s1.93-2.75,2.58-4.75c1.07-3.28,2.17-6.67,5-6.67a5,5,0,0,1,4.46,2.5c.86,1.14,1.6,2.13,3.57,2.13,1.78,0,2.48-2.51,3.15-4.94.8-2.86,1.61-5.82,4.57-5.82s3.68,3.72,4.48,7.67c.64,3.18,1.44,7.15,3.45,7.15,1.2,0,2.18-1,3.22-2,1.27-1.26,2.7-2.69,5-2.69a7.21,7.21,0,0,1,3.53,1.15,7.62,7.62,0,0,0,3.78,1.2c1.14,0,2.18-2.15,3-3.88,1.23-2.54,2.5-5.17,5.12-5.17s3.86,1.71,5,3.21c.82,1.1,1.6,2.14,2.62,2.14.87,0,1.86-1.66,2.73-3.13,1.49-2.51,3.34-5.64,6.95-5.64v.86c-2.78,0-4.39,2.71-5.8,5.1-1.22,2-2.18,3.67-3.88,3.67s-2.72-1.26-3.72-2.6-2.06-2.76-3.89-2.76-2.9,2.44-3.94,4.59c-1.17,2.4-2.17,4.47-4.2,4.47a9,9,0,0,1-4.54-1.39,5.93,5.93,0,0,0-2.77-1c-1.66,0-2.85,1.19-4,2.33s-2.39,2.38-4.24,2.38c-3.09,0-3.86-3.83-4.68-7.9-.62-3.08-1.39-6.92-3.25-6.92s-2.69,2.72-3.35,5.12c-.81,2.9-1.57,5.64-4.37,5.64a5.2,5.2,0,0,1-4.67-2.59c-.83-1.1-1.55-2-3.36-2s-3,3.33-3.83,6c-1,3-1.77,5.41-3.79,5.41s-3-1.6-4-3.3-2-3.2-3.6-3.2-3.17,2.64-4.34,4.76C62.51,194.61,61.49,196.44,59.8,196.44Z" style="fill:#D71D42"></path><path d="M59.8,162.12c.1,8.11.19,16.21.2,24.32l.09,24.33-.29-.2,44.11.05,22,0,22,.11-22,.11-22,0L59.8,211h-.29v-.2l.09-24.33C59.62,178.33,59.7,170.23,59.8,162.12Z" style="fill:#455a64"></path><rect x="44.54" y="143.26" width="116.45" height="5.74" style="fill:#263238"></rect><path d="M50,146.13A1.09,1.09,0,1,1,48.87,145,1.09,1.09,0,0,1,50,146.13Z" style="fill:#c7c7c7"></path><path d="M54.41,146.13A1.09,1.09,0,1,1,53.32,145,1.09,1.09,0,0,1,54.41,146.13Z" style="fill:#fff"></path><path d="M58.86,146.13A1.09,1.09,0,1,1,57.77,145,1.09,1.09,0,0,1,58.86,146.13Z" style="fill:#D71D42"></path></g><g id="freepik--Character--inject-40"><path d="M448.84,392.19s.7,43.77.7,43.8c-.11,8.2-.35,15.39-.82,19.1a.13.13,0,0,1,0,.06,5.77,5.77,0,0,1-.63,2.53s0,0-.05.05c-2.47,1.62-68,2.68-70.34,1.94s-.39-7.34,2.12-9.41,27.45-13.71,27.45-13.71L407,392.19Z" style="fill:#f7a9a0"></path><path d="M449.7,427.19s-.16,8.77-.16,8.8c-.11,8.2-.35,15.39-.82,19.1a.13.13,0,0,1,0,.06,11.4,11.4,0,0,1-.63,2.53s0,0-.05.05c-2.47,1.62-68,2.68-70.34,1.94s-.39-7.34,2.12-9.41,27.45-13.71,27.45-13.71l0-8.93Z" style="fill:#fff"></path><path d="M403.24,436.54c4.37-.68,9.67.15,12.9,3.36.12.12-.06.3-.2.25a60.63,60.63,0,0,0-12.7-3.06A.28.28,0,0,1,403.24,436.54Z" style="fill:#263238"></path><path d="M400,438.33c4.38-.67,9.67.16,12.9,3.36.12.12-.05.3-.19.25A61.51,61.51,0,0,0,400,438.88.28.28,0,0,1,400,438.33Z" style="fill:#263238"></path><path d="M396.85,440.13c4.37-.68,9.67.15,12.89,3.35.13.13-.05.3-.19.25a61.55,61.55,0,0,0-12.7-3.05A.28.28,0,0,1,396.85,440.13Z" style="fill:#263238"></path><path d="M377.69,459.68c2.3.73,67.84.87,70.31-.75.95-.6,1.38-11.37,1.54-22.94v-.36l-42.31.21,0,.72s-24.92,11.63-27.45,13.7S375.38,459,377.69,459.68Z" style="fill:#D71D42"></path><path d="M378.39,457.12c11.05-.45,55.65-1.22,66.61-.82.09,0,.09.06,0,.07-10.94.68-55.55,1.09-66.61.93C378.16,457.3,378.16,457.13,378.39,457.12Z" style="fill:#263238"></path><path d="M410.58,436,386,460a80.5,80.5,0,0,1-8.28-.36c-2.3-.73-.39-7.35,2.12-9.42s27.45-13.71,27.45-13.71l0-.71,3.22,0Z" style="opacity:0.1"></path><path d="M451.05,435.44l-47.81.56s-1.1-80.91-1.05-106.67c.05-29.43,4.46-117.22,4.46-117.22l35.47.35a112.37,112.37,0,0,1,7.72,27.71c.56,4.1-.08,16.05-1.5,21.51l-1.26,71.51Z" style="fill:#263238"></path><path d="M409.83,384.34c-.43-12.77-.67-28.46-.9-41.24q-.68-38.36.2-76.71c.32-14.34.85-28.68,1.42-43,0-.16-.25-.16-.26,0-1.61,25.66-2.38,51.37-2.66,77.08s0,54.05,1,79.6c.57,14.34,1.3,28.69,2.51,43,0,.12.2.12.19,0C410.86,410.15,410.26,397.25,409.83,384.34Z" style="fill:#37474f"></path><path d="M409.54,426.77c9.53-.64,19.11-.66,28.66-.47,2.7.05,5.4.12,8.1.26.1,0,.09.14,0,.15-9.53.58-19.12.7-28.66.51-2.7-.06-5.4-.14-8.1-.29C409.43,426.93,409.44,426.78,409.54,426.77Z" style="fill:#37474f"></path><path d="M383.91,395.42s-.16,41.17-.16,41.2c-.11,8.2-.35,15.39-.82,19.1v.06a5.87,5.87,0,0,1-.64,2.53l-.05.05c-2.46,1.62-68,2.68-70.34,1.94s-.39-7.34,2.12-9.41,27.45-13.71,27.45-13.71l2.41-41.64Z" style="fill:#f7a9a0"></path><path d="M383.91,427.82s-.16,8.77-.16,8.8c-.11,8.2-.35,15.39-.82,19.1v.06a11.78,11.78,0,0,1-.64,2.53l-.05.05c-2.46,1.62-68,2.68-70.34,1.94s-.39-7.34,2.12-9.41,27.45-13.71,27.45-13.71l0-8.93Z" style="fill:#fff"></path><path d="M337.45,437.17c4.37-.68,9.67.15,12.9,3.36.12.12-.06.3-.19.25a60.87,60.87,0,0,0-12.71-3.06A.28.28,0,0,1,337.45,437.17Z" style="fill:#263238"></path><path d="M334.25,439c4.38-.67,9.67.16,12.9,3.36.13.12,0,.3-.19.25a61.51,61.51,0,0,0-12.71-3.06A.28.28,0,0,1,334.25,439Z" style="fill:#263238"></path><path d="M331.06,440.76c4.37-.68,9.67.15,12.89,3.35.13.13-.05.3-.19.25a61.55,61.55,0,0,0-12.7-3.05A.28.28,0,0,1,331.06,440.76Z" style="fill:#263238"></path><path d="M311.9,460.31c2.3.73,68.1,1.14,70.57-.49.95-.6,1.12-11.63,1.28-23.2v-.36l-42.31.21,0,.72s-24.92,11.63-27.45,13.7S309.59,459.58,311.9,460.31Z" style="fill:#D71D42"></path><path d="M312.6,457.55c11-.38,55.66-.89,66.61-.43.09,0,.09.07,0,.07-10.94.62-55.55.77-66.61.55C312.37,457.73,312.36,457.56,312.6,457.55Z" style="fill:#263238"></path><path d="M421.09,257.66s-26.21,62.06-28.53,72c-2.19,9.36-6.07,107-6.07,107l-46.73-.36s6.88-98.66,7.75-108.67c1.14-13.15,12.58-43.13,24.71-75.17,5.14-13.58,12.06-26.9,15.68-40.5l53.12.53s-.7,24-11.78,41.22C429.24,253.67,424.28,255.91,421.09,257.66Z" style="fill:#263238"></path><path d="M344.08,427.5c9.54-.46,19.12-.29,28.67.07,2.69.1,5.39.23,8.08.42.1,0,.09.14,0,.15-9.54.4-19.13.33-28.67,0-2.7-.11-5.4-.24-8.09-.44A.08.08,0,0,1,344.08,427.5Z" style="fill:#37474f"></path><path d="M408.9,258.72a43.81,43.81,0,0,0,7.32-.59,72.23,72.23,0,0,0,7.11-1.89,54.41,54.41,0,0,1,7-1.07,24.44,24.44,0,0,0,6.83-2c.11-.05.19.1.09.15a43.41,43.41,0,0,1-6.56,2.77c-2.34.71-4.79.79-7.16,1.34a57.45,57.45,0,0,1-7.31,1.61,26.33,26.33,0,0,1-7.31-.19C408.78,258.87,408.81,258.72,408.9,258.72Z" style="fill:#37474f"></path><path d="M404.33,297.49c.51-1.46,1-2.91,1.54-4.36,1.1-2.92,2.21-5.85,3.42-8.74,2.41-5.76,4.69-11.56,7.24-17.28,1.44-3.25,2.74-6.54,4.43-9.72,0-.08.19,0,.17,0-.86,3-2.07,5.88-3.16,8.81s-2.24,5.84-3.4,8.75c-2.3,5.78-4.56,11.58-7.08,17.31-.7,1.61-1.43,3.22-2.19,4.81s-1.39,3.31-2.32,4.89c-.05.09-.21.05-.18,0A43.66,43.66,0,0,1,404.33,297.49Z" style="fill:#37474f"></path><path d="M394.6,215.18c0-.16.16-.06.15.07a52.36,52.36,0,0,1-2.65,13l-4.51,12.51-9,25c-6.72,18.78-13.7,37.47-19.92,56.41a24.16,24.16,0,0,0-1.17,6.43c-2.14,24.06-5.28,68.16-7.31,92.76,0,.08-.23.19-.23,0,0-.39,1.73-26.52,1.73-26.52,1.1-15.79,2.54-37.55,3.79-53.07.35-4.42.69-8.84,1.1-13.26a25.58,25.58,0,0,1,1.19-6.61c8.8-26.6,19.65-54.94,29.43-81.31l4.73-12.44a51,51,0,0,0,2.72-13Z" style="fill:#37474f"></path><path d="M401.93,152.1c-3.89,11.44-14.2,35.08-23.47,38.1-11,3.61-41.31-16.45-51.36-27.43-3.65-4,13.24-20.25,17.57-18s28.76,21.54,30.24,20.74c2.48-1.35,7.82-6.95,17.26-16.08S403.8,146.62,401.93,152.1Z" style="fill:#f7a9a0"></path><path d="M336.36,168.59c3.13.53,14.71-16.24,13.22-19.14A42.65,42.65,0,0,1,346,132.3c.24-5.39,1.2-13.36-1.69-13.6-4.21-.35-6.65,9.58-7.7,15.37-2.46-2-4.77-3.57-6.44-4-5.55-1.31-14.57,22.73-11,27.3C322.65,161.81,333.23,168.06,336.36,168.59Z" style="fill:#f7a9a0"></path><rect x="333.07" y="129.8" width="5.37" height="23.61" transform="translate(574.54 416.86) rotate(-153.81)" style="fill:#c7c7c7"></rect><polygon points="319.7 165.04 326.99 168.63 326.99 168.63 336.23 149.85 328.94 146.27 328.94 146.27 319.7 165.04" style="fill:#263238"></polygon><path d="M338.35,133.84c.36,2.94-3.31,1.67-3.31,1.67s4.84,3.1,4,6.28-5.17,1.37-5.48,1.25c.25.17,4.63,3.13,3.49,6.24s-5.29.78-5.56.62c.19.23,2.67,3.35,1.27,5.51-2.41,3.72-9-4.07-12.56-4.23,0,0-1,6-1,6.22,0,0-6.4-7.29-5.92-12.11a3.1,3.1,0,0,1,2.68-2.81s-2.32-2.12-1.5-4.6c.42-1.27,2.83-1.72,2.83-1.72a3.86,3.86,0,0,1-.92-3.93c.69-1.72,3-1.91,3-1.91s-.93-2.5.35-4C322.29,123.19,337.59,127.54,338.35,133.84Z" style="fill:#f7a9a0"></path><path d="M319.74,130.24c-.05,0-.05-.09,0-.08a27.53,27.53,0,0,1,15.49,5.4c.14.11,0,.39-.15.29A56.81,56.81,0,0,0,319.74,130.24Z" style="fill:#263238"></path><path d="M317.23,136.11c-.06,0,0-.11,0-.11A25.87,25.87,0,0,1,333.8,143c.15.15.13.44-.05.28C330.55,140.51,322.28,137.09,317.23,136.11Z" style="fill:#263238"></path><path d="M331.73,150.32c-4.45-4.08-9.75-6.33-15.53-7.85-.08,0,0-.12,0-.12,3,0,6.61,1.33,9.31,2.62a15.84,15.84,0,0,1,6.33,5.19C331.93,150.25,331.82,150.4,331.73,150.32Z" style="fill:#263238"></path><path d="M335.13,135.49c.17.13-.21.23,0,.36.69.58,4.53,4.4,3.63,6.11-.72,1.38-3.06,1.36-4,1l-2.25-.9,1.8,1.63a10,10,0,0,1,2,2.5,3.58,3.58,0,0,1,.45,2.88,2,2,0,0,1-2.09,1.47,6.18,6.18,0,0,1-2.91-1L329.36,148l1.79,2.24a9.16,9.16,0,0,1,1.25,2,3.83,3.83,0,0,1,.37,2.19,1.82,1.82,0,0,1-1.28,1.45,4.08,4.08,0,0,1-2.24-.31,32.83,32.83,0,0,1-4.42-2.33c-.72-.43-1.45-.85-2.21-1.25a6,6,0,0,0-2.39-.81,6.5,6.5,0,0,1,2.28,1c.71.44,1.4.92,2.1,1.4a26.25,26.25,0,0,0,4.38,2.61,4.77,4.77,0,0,0,2.68.46,2.6,2.6,0,0,0,2-2.06,4.73,4.73,0,0,0-.39-2.73,10.41,10.41,0,0,0-1.36-2.29l-.64.71a7.08,7.08,0,0,0,3.42,1.25,2.88,2.88,0,0,0,1.91-.56,3.29,3.29,0,0,0,1.13-1.61,4.47,4.47,0,0,0-.56-3.64,11,11,0,0,0-2.28-2.71l-.45.73c1.16.41,3.77.72,5.16-1.27C341,139.63,336.08,136.07,335.13,135.49Z" style="fill:#263238"></path><path d="M335,135.51a5.74,5.74,0,0,0,1.81,0,1.37,1.37,0,0,0,1.09-.87,2.76,2.76,0,0,0-.1-1.59c-.17-.57-.39-1.16-.63-1.77a5,5,0,0,1,1.24,1.53,2.8,2.8,0,0,1,.28,2.1,2,2,0,0,1-.73.93,2.06,2.06,0,0,1-1.07.31A3.15,3.15,0,0,1,335,135.51Z" style="fill:#263238"></path><path d="M352.31,148.16l-20.62,24.11s31.69,24.75,47.48,19.27c3.64-1.26,16.33-16,23.21-37.8,2-6.24.19-17.61-12.24-4.46s-15.08,15.26-15.64,15.28S352.31,148.16,352.31,148.16Z" style="fill:#D71D42"></path><path d="M342.26,161.44a1.84,1.84,0,1,0,2,1.65A1.84,1.84,0,0,0,342.26,161.44Zm.3,2.94a1.12,1.12,0,1,1,1-1.22A1.12,1.12,0,0,1,342.56,164.38Zm13.4-4.3a1.84,1.84,0,1,0,2,1.64A1.84,1.84,0,0,0,356,160.08Zm.29,2.94a1.12,1.12,0,1,1,1-1.22A1.12,1.12,0,0,1,356.25,163Zm14-1.43a.89.89,0,0,1-.28.07,1.12,1.12,0,0,1-1.22-1,.54.54,0,0,1,0-.18l-.64-.47a1.72,1.72,0,0,0-.08.72,1.83,1.83,0,0,0,2,1.64,1.78,1.78,0,0,0,.85-.31Zm13.13-4.24a1.84,1.84,0,1,0,2,1.65A1.84,1.84,0,0,0,383.36,157.35Zm.29,3a1.14,1.14,0,0,1-1.23-1,1.12,1.12,0,1,1,1.23,1Zm13.4-4.31a1.84,1.84,0,1,0,2,1.65A1.84,1.84,0,0,0,397.05,156Zm.3,2.94a1.12,1.12,0,1,1-.22-2.22,1.11,1.11,0,0,1,1.22,1A1.12,1.12,0,0,1,397.35,158.93Zm-47.44-8-.58.69a1.14,1.14,0,0,1-.9,1l-.6.7a1.67,1.67,0,0,0,.55,0,1.84,1.84,0,0,0,1.65-2A1.42,1.42,0,0,0,349.91,151Zm53-3.69a1.12,1.12,0,0,1-1-1,1.14,1.14,0,0,1,.43-1,3.55,3.55,0,0,0-.34-.64,1.82,1.82,0,0,0-.81,1.71A1.84,1.84,0,0,0,403,148Q403,147.62,402.91,147.27Zm-66.34,26.45a1.78,1.78,0,0,0-1.48,1.06l.6.43a1.14,1.14,0,0,1,.95-.78,1.12,1.12,0,0,1,1.22,1,1.06,1.06,0,0,1-.43,1l.62.41a1.79,1.79,0,0,0,.53-1.47A1.84,1.84,0,0,0,336.57,173.72Zm21.64,8.94a1.84,1.84,0,1,0,2,1.64A1.84,1.84,0,0,0,358.21,182.66Zm.29,2.94a1.12,1.12,0,1,1,1-1.22A1.12,1.12,0,0,1,358.5,185.6Zm13.41-4.31a1.85,1.85,0,0,0-1.65,2,1.84,1.84,0,1,0,1.65-2Zm.29,3a1.12,1.12,0,1,1,1-1.23A1.12,1.12,0,0,1,372.2,184.24Zm13.4-4.31a1.84,1.84,0,1,0,2,1.65A1.83,1.83,0,0,0,385.6,179.93Zm.3,2.95a1.12,1.12,0,1,1,1-1.23A1.12,1.12,0,0,1,385.9,182.88Zm-35.63-10.52a1.83,1.83,0,1,0,2,1.64A1.84,1.84,0,0,0,350.27,172.36Zm.29,2.94a1.12,1.12,0,1,1,1-1.23A1.13,1.13,0,0,1,350.56,175.3ZM364,171a1.84,1.84,0,1,0,2,1.65A1.84,1.84,0,0,0,364,171Zm.3,2.95a1.12,1.12,0,1,1,1-1.23A1.12,1.12,0,0,1,364.26,173.94Zm13.4-4.31a1.84,1.84,0,1,0,2,1.65A1.84,1.84,0,0,0,377.66,169.63Zm.29,2.94a1.12,1.12,0,1,1,1-1.22A1.12,1.12,0,0,1,378,172.57Zm13.41-4.3a1.84,1.84,0,1,0,2,1.64A1.84,1.84,0,0,0,391.36,168.27Zm.29,2.94a1.12,1.12,0,0,1-.22-2.23,1.14,1.14,0,0,1,1.23,1A1.12,1.12,0,0,1,391.65,171.21Z" style="opacity:0.1"></path><path d="M339,175.26a71.86,71.86,0,0,1,4.51-5.64q2.26-2.73,4.57-5.42c3.09-3.63,6.12-7.35,9.45-10.77a.09.09,0,0,1,.14.11c-2.75,4-5.92,7.62-9,11.29q-2.33,2.76-4.73,5.46a60.81,60.81,0,0,1-4.79,5.1C339,175.46,338.93,175.34,339,175.26Z" style="fill:#263238"></path><path d="M402.38,153.74c-6.88,21.78-19.57,36.54-23.21,37.8s-8.76.94-14.25-.75c10.15-14.38,26.44-37.36,34-47.56C403.31,142.74,403.73,149.45,402.38,153.74Z" style="opacity:0.1"></path><path d="M394.32,157c3,.23,9.3-5.12,11.85-9.71.17-.31-.29-3.65-.66-7.72-.22-2.48-.4-5.24-.38-7.77l-15.9,3.75a40.72,40.72,0,0,1,1.47,9.73,5.7,5.7,0,0,1-.12,1c0,.05,0,.11,0,.17C390.22,148.45,389.69,156.63,394.32,157Z" style="fill:#f7a9a0"></path><path d="M390.56,146.48a9.27,9.27,0,0,0,1.63.1c8.81-.14,11.31-10.8,11.93-14.55l-14.89,3.52a40.62,40.62,0,0,1,1.47,9.73,5.69,5.69,0,0,1-.12,1C390.58,146.36,390.56,146.42,390.56,146.48Z" style="fill:#263238"></path><path d="M405.55,110.34c2.35,5.4,1.26,21.89-2.31,25.95-5.16,5.88-14.54,7.47-19.78,1.05-5.07-6.23-3.26-27.69.8-31.48C390.25,100.29,402.08,102.37,405.55,110.34Z" style="fill:#f7a9a0"></path><path d="M406.46,125.43c-.52,4.71-1.61,9-3.22,10.86-5.16,5.88-14.54,7.47-19.78,1.05-3.55-4.36-3.73-16.18-2.12-24.19h0c.68-3.42,1.7-6.15,2.91-7.28,6-5.57,17.82-3.49,21.3,4.48C406.85,113.32,407.1,119.66,406.46,125.43Z" style="fill:#f7a9a0"></path><path d="M392.93,121.56s.08.06.07.11c-.15,1.1-.14,2.39.83,2.86a0,0,0,0,1,0,.07C392.61,124.29,392.61,122.58,392.93,121.56Z" style="fill:#263238"></path><path d="M394,120.51c1.79,0,1.56,3.64-.11,3.59S392.53,120.47,394,120.51Z" style="fill:#263238"></path><path d="M386.47,120.86s-.09,0-.09.1c0,1.11-.27,2.38-1.3,2.68,0,0,0,.07,0,.06C386.33,123.61,386.62,121.92,386.47,120.86Z" style="fill:#263238"></path><path d="M385.56,119.64c-1.78-.26-2.15,3.32-.51,3.55S387.05,119.85,385.56,119.64Z" style="fill:#263238"></path><path d="M395.52,119.06c-.48-.16-.9-.38-1.36-.58a2.44,2.44,0,0,1-1.27-.86.75.75,0,0,1,.19-.91,1.87,1.87,0,0,1,1.9-.07,2.82,2.82,0,0,1,1.52,1.3A.82.82,0,0,1,395.52,119.06Z" style="fill:#263238"></path><path d="M384.38,118a14.27,14.27,0,0,0,1.45-.28,2.35,2.35,0,0,0,1.42-.56.75.75,0,0,0,0-.93,1.91,1.91,0,0,0-1.85-.48,2.83,2.83,0,0,0-1.76,1A.81.81,0,0,0,384.38,118Z" style="fill:#263238"></path><path d="M393.09,131.75c-.28.24-.57.58-1,.59a2.9,2.9,0,0,1-1.17-.36s-.07,0-.05.06a1.5,1.5,0,0,0,1.37.69c.51,0,.78-.47.94-.92C393.22,131.74,393.13,131.71,393.09,131.75Z" style="fill:#263238"></path><path d="M392.14,128.35a3.75,3.75,0,0,1-2.63,1.51,4.84,4.84,0,0,1-1.37,0l-.25-.05-.25-.06a.26.26,0,0,1-.2-.26h0a.22.22,0,0,1,0-.11h0v-.1c0-.85.2-2.15.2-2.15-.33.14-2,.75-1.91.3A56.83,56.83,0,0,1,388,116a.1.1,0,0,1,.2,0c-.3,3.55-1.23,7-1.6,10.61a6.55,6.55,0,0,1,1.82-.43c.12,0-.37,2.5-.35,2.89,0,0,0,0,0,0a5.27,5.27,0,0,0,4-1C392.13,128.18,392.22,128.26,392.14,128.35Z" style="fill:#263238"></path><path d="M388.68,129.43a4.51,4.51,0,0,0,1.7,1.52,2,2,0,0,0,1.22.15c.9-.17,1-1,.86-1.69a4.78,4.78,0,0,0-.32-1.09A5.86,5.86,0,0,1,388.68,129.43Z" style="fill:#263238"></path><path d="M390.38,131a2,2,0,0,0,1.22.15c.9-.17,1-1,.86-1.69A2.09,2.09,0,0,0,390.38,131Z" style="fill:#ff9abb"></path><path d="M406.46,125.43c-.15.15-3.75-1.33-4.24-9.76-.24-4.09-1.74-8-5.15-7.88s-5.75,2.71-8.37,2.37-2.94-3.28-4.28-2.6c-1.71.86-3,5.31-3.07,5.58.68-3.42,1.7-6.15,2.91-7.28,6-5.57,19.34-5.08,22.82,2.89C408.37,111.73,407.86,121.84,406.46,125.43Z" style="fill:#263238"></path><path d="M393.58,127.72A4.9,4.9,0,0,1,389.7,122h0a4.89,4.89,0,1,1,5.09,5.81A5,5,0,0,1,393.58,127.72Zm-3.24-5.61a4.24,4.24,0,1,0,3.91-3.43A4.26,4.26,0,0,0,390.34,122.11Z" style="fill:#455a64"></path><path d="M383.26,127.09c-2-.11-3.51-2.4-3.35-5.09a5.81,5.81,0,0,1,1.23-3.36,3,3,0,0,1,5.21.3,5.82,5.82,0,0,1,.83,3.48c-.14,2.55-1.73,4.56-3.6,4.67Zm-1.62-8a5.25,5.25,0,0,0-1.08,3c-.13,2.34,1.1,4.31,2.74,4.41s3.1-1.73,3.23-4.06a5.17,5.17,0,0,0-.73-3.09,2.64,2.64,0,0,0-2-1.32h-.25A2.72,2.72,0,0,0,381.64,119.05Z" style="fill:#455a64"></path><path d="M389.83,122.56l.45-.47c-.71-.67-2.37-1.61-3.64-.4l.45.48C388.23,121.08,389.76,122.5,389.83,122.56Z" style="fill:#455a64"></path><path d="M411.53,125.08l.6-.27c-.13-.28-1.26-2.73-2.7-3s-10.16,0-10.53,0l0,.65c2.52-.09,9.32-.28,10.36,0S411.23,124.4,411.53,125.08Z" style="fill:#455a64"></path><path d="M403.61,123.9s3.17-5.58,5.67-4.5.46,8.93-2.23,10.23a2.84,2.84,0,0,1-3.94-1.16Z" style="fill:#f7a9a0"></path><path d="M408.64,121.64s.06,0,0,.07c-1.88,1-2.74,2.89-3.28,4.84a1.57,1.57,0,0,1,2.3-.65c.06,0,0,.11,0,.11a1.73,1.73,0,0,0-1.86.79,8.81,8.81,0,0,0-.78,1.64c-.07.18-.4.12-.35-.09v0C404.38,125.81,406,122.14,408.64,121.64Z" style="fill:#263238"></path><path d="M388.51,154.6l.11-8.65L406,138.79l1.88,6.13a28.16,28.16,0,0,1-6.44,9.51C397.11,158.38,392,158.56,388.51,154.6Z" style="fill:#ebebeb"></path><path d="M447.67,226.06c-.14.2-67,6.46-67.77,5.83-1-.89.1-65.38,9.41-81.95,2.33-4.14,13.11-8.3,18.1-5.55C424.85,154,448.16,225.33,447.67,226.06Z" style="fill:#D71D42"></path><path d="M447.67,226.06c-.14.2-67,6.46-67.77,5.83-.52-.45-.48-17.43.91-36.16,0-.3,0-.6.07-.9,0-.47.07-1,.11-1.43h0c0-.3.05-.61.07-.92,1.41-17.08,4-34.89,8.25-42.53a4.78,4.78,0,0,1,.43-.64h0a8.22,8.22,0,0,1,1.34-1.38c3.94-3.3,12.15-5.83,16.32-3.53,8.51,4.7,18.42,24.1,26.29,42.8l.3.73c.24.6.49,1.19.74,1.78.1.24.19.48.3.72,4.79,11.71,8.69,22.79,10.84,29.4.3.94.57,1.78.8,2.53A21.34,21.34,0,0,1,447.67,226.06Z" style="fill:#D71D42"></path><path d="M397.05,156a1.84,1.84,0,1,0,2,1.65A1.84,1.84,0,0,0,397.05,156Zm.3,2.94a1.12,1.12,0,1,1-.22-2.22,1.11,1.11,0,0,1,1.22,1A1.12,1.12,0,0,1,397.35,158.93Zm13.4-4.3a1.84,1.84,0,1,0,2,1.64A1.84,1.84,0,0,0,410.75,154.63Zm.3,2.94a1.12,1.12,0,1,1,1-1.22A1.12,1.12,0,0,1,411.05,157.57Zm-21.3-8.27a1.84,1.84,0,0,0,1.34-1.38A8.22,8.22,0,0,0,389.75,149.3Zm13.06-5a1.84,1.84,0,1,0,2,1.65A1.85,1.85,0,0,0,402.81,144.32Zm.29,3a1.12,1.12,0,1,1,1-1.23A1.12,1.12,0,0,1,403.1,147.27Zm-17.5,32.66a1.84,1.84,0,1,0,2,1.65A1.83,1.83,0,0,0,385.6,179.93Zm.3,2.95a1.12,1.12,0,1,1,1-1.23A1.12,1.12,0,0,1,385.9,182.88Zm13.4-4.31a1.84,1.84,0,1,0,2,1.65A1.84,1.84,0,0,0,399.3,178.57Zm.29,2.94a1.12,1.12,0,0,1-1.22-1,1.12,1.12,0,1,1,2.23-.22A1.12,1.12,0,0,1,399.59,181.51Zm13.41-4.3a1.84,1.84,0,1,0,2,1.64A1.84,1.84,0,0,0,413,177.21Zm.29,2.94a1.12,1.12,0,1,1,1-1.22A1.11,1.11,0,0,1,413.29,180.15Zm13.41-4.31a1.84,1.84,0,1,0,2,1.65A1.85,1.85,0,0,0,426.7,175.84Zm.29,2.95a1.12,1.12,0,1,1,1-1.23A1.12,1.12,0,0,1,427,178.79Zm-35.63-10.52a1.84,1.84,0,1,0,2,1.64A1.84,1.84,0,0,0,391.36,168.27Zm.29,2.94a1.12,1.12,0,0,1-.22-2.23,1.14,1.14,0,0,1,1.23,1A1.12,1.12,0,0,1,391.65,171.21Zm13.41-4.31a1.85,1.85,0,0,0-1.65,2,1.84,1.84,0,1,0,1.65-2Zm.29,2.95a1.12,1.12,0,1,1-.22-2.23,1.12,1.12,0,0,1,.22,2.23Zm13.4-4.31a1.84,1.84,0,1,0,2,1.65A1.84,1.84,0,0,0,418.75,165.54Zm.3,3a1.12,1.12,0,1,1,1-1.23A1.12,1.12,0,0,1,419.05,168.49Zm-31.2,34a1.84,1.84,0,1,0,2,1.65A1.84,1.84,0,0,0,387.85,202.51Zm.29,3a1.12,1.12,0,0,1-.22-2.23,1.12,1.12,0,1,1,.22,2.23Zm13.41-4.31a1.84,1.84,0,1,0,2,1.65A1.84,1.84,0,0,0,401.55,201.15Zm.29,2.94a1.12,1.12,0,1,1-.22-2.23,1.12,1.12,0,0,1,.22,2.23Zm13.4-4.3a1.84,1.84,0,1,0,2,1.64A1.84,1.84,0,0,0,415.24,199.79Zm.3,2.94a1.12,1.12,0,1,1,1-1.22A1.12,1.12,0,0,1,415.54,202.73Zm13.4-4.31a1.84,1.84,0,1,0,2,1.65A1.85,1.85,0,0,0,428.94,198.42Zm.29,3a1.12,1.12,0,1,1,1-1.23A1.12,1.12,0,0,1,429.23,201.37Zm-48.17-8.9c0,.31-.05.62-.07.92h0a1,1,0,0,1,.21.53,1.1,1.1,0,0,1-.32.9c0,.3-.05.6-.07.9a1.83,1.83,0,0,0,1.11-1.87A1.87,1.87,0,0,0,381.06,192.47Zm12.55-1.62a1.84,1.84,0,1,0,2,1.64A1.84,1.84,0,0,0,393.61,190.85Zm.29,2.94a1.12,1.12,0,1,1,1-1.22A1.12,1.12,0,0,1,393.9,193.79Zm13.4-4.31a1.84,1.84,0,1,0,2,1.65A1.85,1.85,0,0,0,407.3,189.48Zm.3,3a1.12,1.12,0,1,1,1-1.23A1.12,1.12,0,0,1,407.6,192.43Zm13.4-4.31a1.84,1.84,0,1,0,2,1.65A1.84,1.84,0,0,0,421,188.12Zm.29,2.95a1.12,1.12,0,1,1,1-1.23A1.12,1.12,0,0,1,421.29,191.07Zm13.45-1.37a1.13,1.13,0,0,1-1-1,1.07,1.07,0,0,1,.23-.78l-.3-.73a1.81,1.81,0,0,0-.65,1.58,1.84,1.84,0,0,0,2,1.65C434.93,190.18,434.84,189.94,434.74,189.7ZM390.1,225.09a1.84,1.84,0,1,0,2,1.65A1.84,1.84,0,0,0,390.1,225.09Zm.29,2.95a1.12,1.12,0,1,1,1-1.23A1.12,1.12,0,0,1,390.39,228Zm13.4-4.31a1.84,1.84,0,1,0,2,1.65A1.85,1.85,0,0,0,403.79,223.73Zm.3,2.94a1.12,1.12,0,0,1-1.23-1,1.12,1.12,0,1,1,2.23-.22A1.12,1.12,0,0,1,404.09,226.67Zm13.4-4.3a1.84,1.84,0,1,0,2,1.64A1.84,1.84,0,0,0,417.49,222.37Zm.29,2.94a1.12,1.12,0,1,1,1-1.22A1.12,1.12,0,0,1,417.78,225.31ZM431.19,221a1.84,1.84,0,1,0,2,1.65A1.85,1.85,0,0,0,431.19,221Zm.29,2.95a1.12,1.12,0,1,1,1-1.23A1.12,1.12,0,0,1,431.48,224Zm14.4-4.13a1.76,1.76,0,0,0-1-.18,1.84,1.84,0,1,0,.36,3.66,1.81,1.81,0,0,0,1.43-1C446.45,221.6,446.18,220.76,445.88,219.82Zm-.7,2.77a1.12,1.12,0,1,1,1-1.23A1.12,1.12,0,0,1,445.18,222.59Zm-63-7.8a1.84,1.84,0,1,0,2,1.65A1.83,1.83,0,0,0,382.15,214.79Zm.3,2.94a1.12,1.12,0,1,1,1-1.22A1.12,1.12,0,0,1,382.45,217.73Zm13.4-4.3a1.84,1.84,0,1,0,2,1.64A1.84,1.84,0,0,0,395.85,213.43Zm.29,2.94a1.12,1.12,0,1,1,1-1.22A1.12,1.12,0,0,1,396.14,216.37Zm13.41-4.31a1.84,1.84,0,1,0,2,1.65A1.85,1.85,0,0,0,409.55,212.06Zm.29,2.95a1.12,1.12,0,0,1-.22-2.23,1.12,1.12,0,1,1,.22,2.23Zm13.41-4.31a1.84,1.84,0,1,0,2,1.65A1.84,1.84,0,0,0,423.25,210.7Zm.29,3a1.14,1.14,0,0,1-1.23-1,1.12,1.12,0,0,1,2.23-.22A1.13,1.13,0,0,1,423.54,213.65Zm13.4-4.31a1.84,1.84,0,1,0,2,1.65A1.84,1.84,0,0,0,436.94,209.34Zm.3,2.94a1.12,1.12,0,0,1-1.23-1,1.14,1.14,0,0,1,1-1.23,1.12,1.12,0,0,1,.22,2.23Z" style="opacity:0.1"></path><path d="M391.09,155.89c-2.67,5.41-21.66,47.76-21,51.53,1.06,6,8.17,20.84,19.28,14.67,8.18-4.54,14.55-49,12.95-65.25C401.59,149.36,396.71,144.53,391.09,155.89Z" style="fill:#D71D42"></path><path d="M397.05,156a1.84,1.84,0,1,0,2,1.65A1.84,1.84,0,0,0,397.05,156Zm.3,2.94a1.12,1.12,0,1,1-.22-2.22,1.11,1.11,0,0,1,1.22,1A1.12,1.12,0,0,1,397.35,158.93Zm-11.75,21a1.84,1.84,0,1,0,2,1.65A1.83,1.83,0,0,0,385.6,179.93Zm.3,2.95a1.12,1.12,0,1,1,1-1.23A1.12,1.12,0,0,1,385.9,182.88Zm13.4-4.31a1.84,1.84,0,1,0,2,1.65A1.84,1.84,0,0,0,399.3,178.57Zm.29,2.94a1.12,1.12,0,0,1-1.22-1,1.12,1.12,0,1,1,2.23-.22A1.12,1.12,0,0,1,399.59,181.51Zm-8.23-13.24a1.84,1.84,0,1,0,2,1.64A1.84,1.84,0,0,0,391.36,168.27Zm.29,2.94a1.12,1.12,0,0,1-.22-2.23,1.14,1.14,0,0,1,1.23,1A1.12,1.12,0,0,1,391.65,171.21Zm-17.5,32.66a1.84,1.84,0,1,0,2,1.65A1.85,1.85,0,0,0,374.15,203.87Zm.29,2.95a1.12,1.12,0,1,1,1-1.23A1.12,1.12,0,0,1,374.44,206.82Zm13.41-4.31a1.84,1.84,0,1,0,2,1.65A1.84,1.84,0,0,0,387.85,202.51Zm.29,3a1.12,1.12,0,0,1-.22-2.23,1.12,1.12,0,1,1,.22,2.23Zm-8.23-13.25a1.84,1.84,0,1,0,2,1.65A1.84,1.84,0,0,0,379.91,192.21Zm.29,2.94a1.12,1.12,0,1,1,1-1.22A1.11,1.11,0,0,1,380.2,195.15Zm13.41-4.3a1.84,1.84,0,1,0,2,1.64A1.84,1.84,0,0,0,393.61,190.85Zm.29,2.94a1.12,1.12,0,1,1,1-1.22A1.12,1.12,0,0,1,393.9,193.79Zm-11.75,21a1.84,1.84,0,1,0,2,1.65A1.83,1.83,0,0,0,382.15,214.79Zm.3,2.94a1.12,1.12,0,1,1,1-1.22A1.12,1.12,0,0,1,382.45,217.73Z" style="opacity:0.1"></path><path d="M359.4,188.51c-3.38-.46-19.17,19.21-15,22,19.59,13.13,37.27,12.15,41.86,11.35,6-1.05,8.69-8.21,7.46-12C391.92,204.33,362.74,189,359.4,188.51Z" style="fill:#f7a9a0"></path><polygon points="337.19 202.38 300.98 203.41 292.68 152.36 328.88 151.33 337.19 202.38" style="fill:#263238"></polygon><polygon points="335.41 202.43 299.2 203.46 290.9 152.41 327.11 151.38 335.41 202.43" style="fill:#455a64"></polygon><path d="M308.34,175.31a3.91,3.91,0,0,0,3.93,3.41,3.18,3.18,0,0,0,3.11-3.61,3.92,3.92,0,0,0-3.93-3.41A3.16,3.16,0,0,0,308.34,175.31Z" style="fill:#fff"></path><path d="M360.89,190.26s-5.77-8.94-10.26-12.69a37.61,37.61,0,0,0-16.35-7.5c-6.45-1.26-22.91.18-23.32,5-.38,4.35,16.37,2,16.37,2s-17.47-.46-16.95,4.87,19.8,1.54,19.8,1.54-18-.07-16.56,5.34c1.05,4.09,18.72,1.64,18.72,1.64s-15.43,0-14.53,4.29c1,4.7,17.45,3.47,17.45,3.47,4.12,10.42,10.56,13.59,15.26,15.4C351.66,214.08,360.89,190.26,360.89,190.26Z" style="fill:#f7a9a0"></path><path d="M333.38,176.87c-2.05-.13-4.12-.27-6.18-.21s-4.11.18-6.15.42a34.72,34.72,0,0,0-7.84,1.71c4.62-1.21,12-1.52,14-1.57s4.09-.21,6.14-.27C333.44,177,333.43,176.88,333.38,176.87Z" style="fill:#263238"></path><path d="M333.71,184.29c-2.62,0-5.23-.2-7.85-.14s-5.09.36-7.7.61c-.2,0-.12.12.08.1,2.61-.14,5-.06,7.65-.17s5.22-.33,7.82-.34A0,0,0,1,0,333.71,184.29Z" style="fill:#263238"></path><path d="M335.14,190.6a57.73,57.73,0,0,0-12,.72c-.2,0-.08.14.12.13,4-.32,7.12-.59,11.9-.71C335.2,190.74,335.22,190.6,335.14,190.6Z" style="fill:#263238"></path><path d="M362.53,188.34l-18.37,26s30.8,12.52,42.16,8.91c5.31-1.69,10.71-11.24,8.22-15.3C390.08,200.65,362.53,188.34,362.53,188.34Z" style="fill:#D71D42"></path><path d="M348.69,207.9,347,210.27h.11a1.84,1.84,0,0,0,1.65-2A1.28,1.28,0,0,0,348.69,207.9Zm11.76-2.66a1.84,1.84,0,1,0,2,1.64A1.83,1.83,0,0,0,360.45,205.24Zm.3,2.94a1.12,1.12,0,1,1,1-1.22A1.12,1.12,0,0,1,360.75,208.18Zm13.4-4.31a1.84,1.84,0,1,0,2,1.65A1.85,1.85,0,0,0,374.15,203.87Zm.29,2.95a1.12,1.12,0,1,1,1-1.23A1.12,1.12,0,0,1,374.44,206.82Zm13.41-4.31a1.84,1.84,0,1,0,2,1.65A1.84,1.84,0,0,0,387.85,202.51Zm.29,3a1.12,1.12,0,0,1-.22-2.23,1.12,1.12,0,1,1,.22,2.23Zm-21.93-11.89a1.84,1.84,0,1,0,2,1.65A1.85,1.85,0,0,0,366.21,193.57Zm.29,3a1.12,1.12,0,1,1,1-1.23A1.12,1.12,0,0,1,366.5,196.52Zm-11.74,21a1.7,1.7,0,0,0-.89.34l1.07.36h0a1.05,1.05,0,0,1,.6.2l1.13.37A1.8,1.8,0,0,0,354.76,217.52Zm13.7-1.37a1.84,1.84,0,1,0,2,1.65A1.84,1.84,0,0,0,368.46,216.15Zm.29,2.95a1.14,1.14,0,0,1-1.23-1,1.12,1.12,0,1,1,1.23,1Zm13.4-4.31a1.84,1.84,0,1,0,2,1.65A1.83,1.83,0,0,0,382.15,214.79Zm.3,2.94a1.12,1.12,0,1,1,1-1.22A1.12,1.12,0,0,1,382.45,217.73Z" style="opacity:0.1"></path><path d="M351.66,215.74c1.19-2.08,2.68-4,4.07-6s2.75-3.84,4.14-5.75c2.82-3.85,5.56-7.79,8.62-11.44.07-.09.21,0,.15.09-2.45,4.14-5.33,8-8.14,11.94-1.41,1.95-2.85,3.89-4.32,5.8a61.77,61.77,0,0,1-4.39,5.44C351.72,215.94,351.61,215.82,351.66,215.74Z" style="fill:#263238"></path><path d="M389.59,202.8a42.33,42.33,0,0,0-3.89-2.91l1.06.29c.67.18,1.32.41,2,.62.06,0,.11-.06.05-.1a9,9,0,0,0-2-.79,9.81,9.81,0,0,0-1.53-.28c-1-.65-2-1.27-3-1.85-1.24-.71-2.49-1.37-3.78-2a26.4,26.4,0,0,0-4.09-1.76c-.07,0-.13.07-.06.11,1.18.75,2.5,1.33,3.74,2s2.63,1.44,3.92,2.19c2.53,1.48,5,3,7.51,4.55C389.58,202.89,389.63,202.83,389.59,202.8Z" style="fill:#263238"></path><path d="M403.76,173.9c-.19,1-.41,1.92-.69,2.86s-.55,1.58-.8,2.38c.45-3.46.84-6.92,1.22-10.39a.05.05,0,0,0-.1,0c-.68,4.23-1.37,8.45-2,12.69s-1.34,8.45-2.13,12.65-1.7,8.44-2.77,12.61c-.54,2.07-1.11,4.12-1.73,6.16a36.22,36.22,0,0,1-1.84,5.18,9.41,9.41,0,0,1-4.15,4.46c-2,1-7.68,2.13-19.91-.35-.08,0-.06.1,0,.12,12,3.09,17.57,1.82,19.41,1.16a8.57,8.57,0,0,0,4.15-3.23,17.44,17.44,0,0,0,2.3-4.78c.68-2,1.24-4.06,1.79-6.1a234.88,234.88,0,0,0,5.13-25.77c.2-1.32.38-2.65.56-4a.06.06,0,0,0,0,0,11.25,11.25,0,0,0,1.05-2.74,17.75,17.75,0,0,0,.55-2.89C403.88,173.84,403.78,173.83,403.76,173.9Z" style="fill:#263238"></path><path d="M374.43,194a257.11,257.11,0,0,1,13.79-32c-3.91,9.28-9.55,23-13.79,32Z" style="fill:#263238"></path><path d="M386.51,163.54c-.19,1.64-.75,3.1-1.06,4.71a6.49,6.49,0,0,1,1.06-4.71Z" style="fill:#263238"></path><path d="M346.47,129.69a13,13,0,0,1-2.1-.59l-.48-.2-.43-.2-.29-.13-4.28-2.22a9.93,9.93,0,0,0,1.2.53,9.39,9.39,0,0,0,1.06.35,10.54,10.54,0,0,0,1,.25c8.82,1.66,18.82-6.27,22.31-17.69,2.71-8.81.77-17.13-4.3-21.24a11.83,11.83,0,0,0-2-1.33l4.28,2.21,0,0c.19.09.37.2.55.3a3.46,3.46,0,0,1,.45.29l.21.13c.11.08.22.15.33.24a1.24,1.24,0,0,1,.18.14c3.2,2.43,5.21,6.49,5.7,11.3l.06.73a26,26,0,0,1-1.17,9.42C365.29,123.43,355.3,131.35,346.47,129.69Z" style="fill:#37474f"></path><path d="M329.78,103.27c-3.55,11.61-.23,22.5,7.45,26.47l4.28,2.21c-7.68-4-11-14.85-7.45-26.47,4.12-13.4,15.85-22.69,26.2-20.75a14.18,14.18,0,0,1,2.46.69c.48.19.94.4,1.4.63l-4.28-2.21a12.64,12.64,0,0,0-1.41-.63,14,14,0,0,0-2.46-.7C345.62,80.57,333.89,89.87,329.78,103.27Z" style="fill:#37474f"></path><path d="M371.56,112.52c3.57-11.65.22-22.58-7.53-26.52-.17-.08-.34-.17-.52-.24l-.15-.07c-.21-.1-.43-.19-.65-.27-.39-.15-.78-.28-1.19-.4s-.83-.21-1.26-.29c-10.36-1.94-22.08,7.36-26.2,20.75a30.26,30.26,0,0,0-1.28,11.9c.05.57.13,1.12.22,1.67s.2,1.09.33,1.63.27,1,.44,1.54c.08.25.16.5.26.75a18.27,18.27,0,0,0,.91,2.12h0c.23.44.47.88.73,1.3a15.11,15.11,0,0,0,4.44,4.72l.39.25.67.4.05,0a12.93,12.93,0,0,0,1.69.78,13.58,13.58,0,0,0,2.46.69C355.73,135.22,367.46,125.93,371.56,112.52Zm-25.09,17.17a13,13,0,0,1-2.1-.59l-.48-.2-.43-.2a11.59,11.59,0,0,1-2.31-1.47c-5.08-4.11-7-12.42-4.32-21.23,3.5-11.42,13.5-19.34,22.33-17.69a12.39,12.39,0,0,1,3.29,1.12l0,0c.19.09.37.2.55.3a3.46,3.46,0,0,1,.45.29l.21.13c.11.08.22.15.33.24a1.24,1.24,0,0,1,.18.14c3.2,2.43,5.21,6.49,5.7,11.3l.06.73a26,26,0,0,1-1.17,9.42C365.29,123.43,355.3,131.35,346.47,129.69Z" style="fill:#455a64"></path><path d="M342.19,127.48a10.54,10.54,0,0,1-1-.25c-5.08-4.11-7-12.42-4.32-21.23,3.5-11.42,13.5-19.34,22.33-17.69a9.22,9.22,0,0,1,1,.24c5.07,4.11,7,12.43,4.3,21.24C361,121.21,351,129.14,342.19,127.48Z" style="fill:#fff;opacity:0.4"></path><g style="opacity:0.30000000000000004"><path d="M365.25,97.36l-25.6,2.27A27.06,27.06,0,0,1,342.23,96l22-1.95A17.69,17.69,0,0,1,365.25,97.36Z" style="fill:#ebebeb"></path><path d="M361.78,90.09l-14.61,1.3c3.76-2.61,8-3.83,12-3.08a9.22,9.22,0,0,1,1,.24A12.76,12.76,0,0,1,361.78,90.09Z" style="fill:#ebebeb"></path><path d="M365.65,100l-27.48,2.43q.42-.93.9-1.8l26.37-2.34C365.53,98.88,365.6,99.44,365.65,100Z" style="fill:#ebebeb"></path><path d="M356.93,122.16a23.16,23.16,0,0,1-2.31,1.93l-15.27,1.35a13.57,13.57,0,0,1-1.16-1.62Z" style="fill:#ebebeb"></path><path d="M361.72,116.11l-25.64,2.27a22.88,22.88,0,0,1-.33-7.12l29.07-2.58c-.1.37-.2.74-.32,1.11A29,29,0,0,1,361.72,116.11Z" style="fill:#ebebeb"></path></g></g></svg>